#N canvas 347 247 612 453 10;
#X floatatom 289 142 5 0 0 0 - - -;
#X obj 289 97 sigmund~ -hop 1024 pitch env;
#X obj 289 43 adc~;
#X floatatom 289 294 4 0 0 0 - - -;
#X obj 289 367 ctlout 1 1;
#X floatatom 454 167 5 0 0 0 - - -;
#X obj 454 261 ctlout 2 1;
#X obj 289 261 clip 20 81;
#X obj 289 172 int;
#X floatatom 289 208 5 0 0 0 - - -;
#X obj 382 166 -;
#X obj 382 223 *;
#X msg 412 149 100;
#X obj 382 252 int;
#X floatatom 321 295 5 0 0 0 - - -;
#X obj 357 367 ctlout 3 1;
#X connect 0 0 8 0;
#X connect 0 0 10 0;
#X connect 1 0 0 0;
#X connect 1 0 12 0;
#X connect 1 1 5 0;
#X connect 2 0 1 0;
#X connect 3 0 4 0;
#X connect 5 0 6 0;
#X connect 7 0 3 0;
#X connect 8 0 9 0;
#X connect 8 0 10 1;
#X connect 9 0 7 0;
#X connect 10 0 11 0;
#X connect 11 0 13 0;
#X connect 12 0 11 1;
#X connect 13 0 14 0;
#X connect 14 0 15 0;
